# xmcd
#
# Track frame offsets: 
#        150
#        21679
#        37600
#        58386
#        76121
#        107732
#        123752
#        145565
#        162390
#        181646
#        200584
#        219201
#        234417
#
# Disc length: 3451 seconds
#
# Revision: 0
# Processed by: cddbd v1.5.2PL0 Copyright (c) Steve Scherf et al.
# Submitted via: ExactAudioCopy v1.0b3
#
DISCID=a30d790d
DTITLE=Mike Zito - Today
DYEAR=2008
DGENRE=Blues
TTITLE0=Love Like This
TTITLE1=Superman
TTITLE2=Holding Out for Love
TTITLE3=Little Red Corvette
TTITLE4=Universe
TTITLE5=Blinded
TTITLE6=Slow it Down
TTITLE7=Today
TTITLE8=No Big City
TTITLE9=Deep Down in Love
TTITLE10=Dirty Things
TTITLE11=Hollywood
TTITLE12=Time to go Home
EXTD=
EXTT0=
EXTT1=
EXTT2=
EXTT3=
EXTT4=
EXTT5=
EXTT6=
EXTT7=
EXTT8=
EXTT9=
EXTT10=
EXTT11=
EXTT12=
PLAYORDER=
